<svg version="1.2" preserveAspectRatio="xMidYMid" fill-rule="evenodd" stroke-width="28.222" stroke-linejoin="round" xmlns="http://www.w3.org/2000/svg" xmlns:ooo="http://xml.openoffice.org/svg/export" xmlns:xlink="http://www.w3.org/1999/xlink" xmlns:presentation="http://sun.com/xmlns/staroffice/presentation" xmlns:smil="http://www.w3.org/2001/SMIL20/" xmlns:anim="urn:oasis:names:tc:opendocument:xmlns:animation:1.0" xml:space="preserve" viewBox="2793 2100 10205 4301">
 <defs class="ClipPathGroup">
  <clipPath id="presentation_clip_path" clipPathUnits="userSpaceOnUse">
   <rect x="0" y="0" width="16000" height="9000"/>
  </clipPath>
  <clipPath id="presentation_clip_path_shrink" clipPathUnits="userSpaceOnUse">
   <rect x="16" y="9" width="15968" height="8982"/>
  </clipPath>
 </defs>
 <defs class="TextShapeIndex">
  <g ooo:slide="id1" ooo:id-list="id3 id4 id5 id6 id7 id8 id9 id10 id11 id12 id13 id14 id15 id16 id17 id18 id19 id20 id21 id22 id23 id24 id25 id26 id27 id28 id29 id30 id31 id32 id33 id34 id35 id36 id37 id38 id39 id40 id41 id42 id43 id44 id45 id46 id47 id48 id49"/>
 </defs>
 <defs class="EmbeddedBulletChars">
  <g id="bullet-char-template-57356" transform="scale(0.00048828125,-0.00048828125)">
   <path d="M 580,1141 L 1163,571 580,0 -4,571 580,1141 Z"/>
  </g>
  <g id="bullet-char-template-57354" transform="scale(0.00048828125,-0.00048828125)">
   <path d="M 8,1128 L 1137,1128 1137,0 8,0 8,1128 Z"/>
  </g>
  <g id="bullet-char-template-10146" transform="scale(0.00048828125,-0.00048828125)">
   <path d="M 174,0 L 602,739 174,1481 1456,739 174,0 Z M 1358,739 L 309,1346 659,739 1358,739 Z"/>
  </g>
  <g id="bullet-char-template-10132" transform="scale(0.00048828125,-0.00048828125)">
   <path d="M 2015,739 L 1276,0 717,0 1260,543 174,543 174,936 1260,936 717,1481 1274,1481 2015,739 Z"/>
  </g>
  <g id="bullet-char-template-10007" transform="scale(0.00048828125,-0.00048828125)">
   <path d="M 0,-2 C -7,14 -16,27 -25,37 L 356,567 C 262,823 215,952 215,954 215,979 228,992 255,992 264,992 276,990 289,987 310,991 331,999 354,1012 L 381,999 492,748 772,1049 836,1024 860,1049 C 881,1039 901,1025 922,1006 886,937 835,863 770,784 769,783 710,716 594,584 L 774,223 C 774,196 753,168 711,139 L 727,119 C 717,90 699,76 672,76 641,76 570,178 457,381 L 164,-76 C 142,-110 111,-127 72,-127 30,-127 9,-110 8,-76 1,-67 -2,-52 -2,-32 -2,-23 -1,-13 0,-2 Z"/>
  </g>
  <g id="bullet-char-template-10004" transform="scale(0.00048828125,-0.00048828125)">
   <path d="M 285,-33 C 182,-33 111,30 74,156 52,228 41,333 41,471 41,549 55,616 82,672 116,743 169,778 240,778 293,778 328,747 346,684 L 369,508 C 377,444 397,411 428,410 L 1163,1116 C 1174,1127 1196,1133 1229,1133 1271,1133 1292,1118 1292,1087 L 1292,965 C 1292,929 1282,901 1262,881 L 442,47 C 390,-6 338,-33 285,-33 Z"/>
  </g>
  <g id="bullet-char-template-9679" transform="scale(0.00048828125,-0.00048828125)">
   <path d="M 813,0 C 632,0 489,54 383,161 276,268 223,411 223,592 223,773 276,916 383,1023 489,1130 632,1184 813,1184 992,1184 1136,1130 1245,1023 1353,916 1407,772 1407,592 1407,412 1353,268 1245,161 1136,54 992,0 813,0 Z"/>
  </g>
  <g id="bullet-char-template-8226" transform="scale(0.00048828125,-0.00048828125)">
   <path d="M 346,457 C 273,457 209,483 155,535 101,586 74,649 74,723 74,796 101,859 155,911 209,963 273,989 346,989 419,989 480,963 531,910 582,859 608,796 608,723 608,648 583,586 532,535 482,483 420,457 346,457 Z"/>
  </g>
  <g id="bullet-char-template-8211" transform="scale(0.00048828125,-0.00048828125)">
   <path d="M -4,459 L 1135,459 1135,606 -4,606 -4,459 Z"/>
  </g>
  <g id="bullet-char-template-61548" transform="scale(0.00048828125,-0.00048828125)">
   <path d="M 173,740 C 173,903 231,1043 346,1159 462,1274 601,1332 765,1332 928,1332 1067,1274 1183,1159 1299,1043 1357,903 1357,740 1357,577 1299,437 1183,322 1067,206 928,148 765,148 601,148 462,206 346,322 231,437 173,577 173,740 Z"/>
  </g>
 </defs>
 <g>
  <g id="id2" class="Master_Slide">
   <g id="bg-id2" class="Background"/>
   <g id="bo-id2" class="BackgroundObjects"/>
  </g>
 </g>
 <g class="SlideGroup">
  <g>
   <g id="container-id1">
    <g id="id1" class="Slide" clip-path="url(#presentation_clip_path)">
     <g class="Page">
      <g class="com.sun.star.drawing.CustomShape">
       <g id="id3">
        <rect class="BoundingBox" stroke="none" fill="none" x="3563" y="2602" width="3252" height="3202"/>
        <path fill="rgb(28,28,28)" stroke="none" d="M 6814,4203 C 6814,4483 6739,4759 6596,5003 6454,5246 6248,5448 6001,5589 5754,5729 5474,5803 5189,5803 4903,5803 4623,5729 4376,5589 4129,5448 3923,5246 3781,5003 3638,4759 3563,4483 3563,4203 3563,3922 3638,3646 3781,3402 3923,3159 4129,2957 4376,2816 4623,2676 4903,2602 5188,2602 5474,2602 5754,2676 6001,2816 6248,2957 6454,3159 6596,3402 6739,3646 6814,3922 6814,4202 L 6814,4203 Z"/>
       </g>
      </g>
      <g class="Group">
       <g class="com.sun.star.drawing.PolyPolygonShape">
        <g id="id4">
         <rect class="BoundingBox" stroke="none" fill="none" x="3952" y="3618" width="791" height="1290"/>
         <path fill="rgb(255,255,255)" stroke="none" d="M 4691,3809 L 4689,3812 4687,3815 4685,3818 4682,3820 4680,3823 4677,3825 4675,3827 4672,3829 4669,3830 4666,3831 4663,3833 4660,3833 4657,3834 4653,3835 4650,3835 4646,3835 4643,3835 4640,3835 4637,3834 4634,3834 4631,3833 4629,3832 4626,3831 4623,3830 4618,3827 4612,3824 4607,3819 4602,3815 4591,3804 4580,3795 4568,3785 4555,3776 4548,3772 4541,3767 4533,3763 4525,3759 4507,3751 4487,3743 4476,3740 4465,3737 4453,3734 4440,3732 4427,3731 4413,3729 4398,3729 4383,3728 4367,3729 4352,3730 4338,3731 4324,3733 4310,3736 4297,3739 4285,3742 4273,3747 4261,3751 4250,3757 4239,3762 4229,3768 4220,3774 4211,3781 4202,3788 4194,3795 4187,3803 4180,3811 4173,3819 4167,3828 4161,3837 4156,3846 4151,3856 4147,3865 4143,3875 4140,3885 4137,3896 4135,3906 4133,3916 4132,3927 4131,3938 4131,3949 4131,3962 4132,3975 4134,3988 4137,3999 4140,4010 4143,4021 4148,4031 4153,4040 4159,4049 4165,4058 4171,4066 4179,4074 4186,4082 4195,4089 4204,4096 4213,4103 4223,4109 4233,4115 4243,4121 4255,4127 4278,4138 4303,4148 4413,4187 4528,4229 4543,4234 4556,4241 4570,4248 4583,4255 4596,4262 4609,4271 4622,4279 4634,4288 4646,4298 4657,4308 4667,4318 4677,4330 4687,4341 4696,4354 4704,4367 4712,4381 4719,4395 4725,4410 4731,4426 4735,4443 4738,4460 4740,4479 4742,4498 4742,4518 4742,4537 4741,4557 4738,4576 4735,4595 4732,4614 4727,4633 4721,4651 4715,4669 4708,4687 4699,4703 4691,4720 4681,4736 4670,4751 4659,4766 4647,4780 4634,4793 4621,4806 4606,4818 4591,4830 4576,4841 4559,4851 4542,4860 4524,4869 4506,4876 4487,4883 4467,4890 4446,4895 4425,4899 4404,4902 4382,4905 4359,4906 4335,4907 4304,4906 4274,4904 4246,4900 4219,4895 4193,4889 4168,4881 4144,4872 4121,4862 4099,4850 4079,4838 4059,4824 4049,4817 4039,4809 4020,4792 3999,4771 3976,4747 3952,4719 3979,4677 3984,4673 3988,4669 3993,4665 3997,4662 3998,4661 3999,4661 4001,4660 4002,4659 4005,4658 4008,4657 4011,4657 4015,4656 4019,4656 4023,4656 4028,4656 4031,4656 4033,4657 4035,4657 4038,4658 4040,4659 4042,4660 4045,4661 4047,4662 4051,4664 4055,4668 4059,4671 4091,4702 4099,4709 4108,4717 4118,4725 4128,4733 4140,4741 4152,4749 4165,4757 4179,4764 4195,4770 4211,4777 4229,4782 4247,4787 4257,4790 4268,4792 4278,4793 4289,4795 4312,4796 4336,4797 4354,4797 4370,4796 4387,4794 4403,4792 4418,4789 4433,4785 4447,4781 4461,4776 4474,4770 4487,4764 4499,4757 4511,4750 4522,4743 4533,4735 4543,4726 4552,4717 4561,4708 4569,4698 4577,4688 4585,4677 4591,4666 4598,4655 4603,4643 4608,4631 4613,4619 4617,4606 4620,4593 4623,4580 4625,4567 4627,4553 4627,4539 4628,4525 4627,4511 4626,4497 4625,4485 4622,4472 4619,4461 4615,4450 4611,4440 4606,4431 4600,4422 4594,4413 4587,4405 4580,4397 4572,4389 4564,4382 4556,4375 4546,4368 4537,4361 4527,4355 4516,4349 4505,4344 4482,4333 4456,4323 4346,4286 4231,4245 4217,4239 4203,4232 4189,4225 4176,4218 4162,4210 4150,4202 4137,4194 4125,4184 4114,4175 4102,4165 4092,4154 4082,4142 4073,4130 4064,4118 4055,4104 4047,4090 4040,4076 4034,4060 4029,4044 4025,4027 4022,4009 4019,3990 4018,3971 4017,3950 4018,3934 4019,3918 4021,3902 4024,3886 4027,3871 4031,3855 4036,3840 4042,3825 4049,3810 4056,3796 4064,3782 4072,3769 4082,3756 4092,3743 4102,3731 4114,3719 4126,3708 4139,3697 4152,3687 4166,3678 4181,3669 4196,3661 4212,3653 4229,3646 4246,3640 4264,3634 4282,3630 4301,3626 4321,3623 4341,3621 4362,3619 4383,3619 4407,3619 4430,3621 4452,3623 4474,3627 4495,3631 4516,3637 4536,3643 4555,3651 4574,3659 4593,3670 4613,3682 4633,3695 4653,3711 4673,3728 4693,3746 4714,3767 4691,3809 Z"/>
        </g>
       </g>
       <g class="com.sun.star.drawing.ClosedBezierShape">
        <g id="id5">
         <rect class="BoundingBox" stroke="none" fill="none" x="4811" y="3632" width="1708" height="1262"/>
         <path fill="rgb(255,255,255)" stroke="none" d="M 4811,3632 L 4897,3632 4902,3632 4907,3633 4911,3633 4915,3634 4919,3636 4923,3638 4927,3640 4930,3642 4933,3644 4936,3647 4939,3651 4942,3654 4944,3658 4946,3662 4948,3667 4949,3671 C 4949,3671 5272,4675 5259,4675 5381,4322 5606,3671 5606,3671 L 5608,3666 5610,3662 5612,3658 5614,3654 5617,3650 5619,3647 5622,3644 5626,3642 5629,3639 5633,3637 5637,3636 5641,3634 5645,3633 5650,3633 5655,3632 5660,3632 5671,3632 5676,3632 5681,3633 5686,3633 5690,3634 5694,3636 5698,3637 5701,3639 5705,3642 5708,3644 5711,3647 5714,3650 5716,3654 5718,3658 5720,3662 5722,3666 5724,3671 6069,4671 6381,3671 6382,3667 6384,3662 6386,3658 6389,3654 6391,3651 6394,3647 6397,3644 6400,3642 6404,3640 6407,3638 6411,3636 6416,3634 6420,3633 6425,3633 6430,3632 6435,3632 6518,3632 6119,4893 6026,4893 5663,3837 5301,4893 5210,4893 4811,3632 Z"/>
        </g>
       </g>
      </g>
      <g class="com.sun.star.drawing.LineShape">
       <g id="id6">
        <rect class="BoundingBox" stroke="none" fill="none" x="4266" y="2373" width="355" height="505"/>
        <path fill="none" stroke="rgb(17,17,17)" stroke-width="53" stroke-linejoin="round" d="M 4293,2400 L 4593,2850"/>
       </g>
      </g>
      <g class="com.sun.star.drawing.CustomShape">
       <g id="id7">
        <rect class="BoundingBox" stroke="none" fill="none" x="4043" y="2100" width="502" height="502"/>
        <path fill="rgb(28,28,28)" stroke="none" d="M 4544,2351 C 4544,2394 4532,2438 4510,2476 4488,2514 4457,2545 4419,2567 4381,2589 4337,2601 4294,2601 4250,2601 4206,2589 4168,2567 4130,2545 4099,2514 4077,2476 4055,2438 4043,2394 4043,2351 4043,2307 4055,2263 4077,2225 4099,2187 4130,2156 4168,2134 4206,2112 4250,2100 4294,2100 4337,2100 4381,2112 4419,2134 4457,2156 4488,2187 4510,2225 4532,2263 4544,2307 4544,2350 L 4544,2351 Z"/>
       </g>
      </g>
      <g class="com.sun.star.drawing.CustomShape">
       <g id="id8">
        <rect class="BoundingBox" stroke="none" fill="none" x="6343" y="5398" width="702" height="702"/>
        <path fill="rgb(28,28,28)" stroke="none" d="M 7044,5748 C 7044,5687 7028,5627 6997,5573 6966,5520 6922,5476 6869,5445 6815,5414 6755,5398 6694,5398 6632,5398 6572,5414 6518,5445 6465,5476 6421,5520 6390,5573 6359,5627 6343,5687 6343,5748 6343,5810 6359,5870 6390,5924 6421,5977 6465,6021 6518,6052 6572,6083 6632,6099 6694,6099 6755,6099 6815,6083 6869,6052 6922,6021 6966,5977 6997,5924 7028,5870 7044,5810 7044,5748 L 7044,5748 Z"/>
       </g>
      </g>
      <g class="com.sun.star.drawing.LineShape">
       <g id="id9">
        <rect class="BoundingBox" stroke="none" fill="none" x="6133" y="2520" width="1372" height="630"/>
        <path fill="none" stroke="rgb(28,28,28)" stroke-width="81" stroke-linejoin="round" d="M 7463,3108 L 6174,2561"/>
       </g>
      </g>
      <g class="com.sun.star.drawing.CustomShape">
       <g id="id10">
        <rect class="BoundingBox" stroke="none" fill="none" x="7243" y="2949" width="351" height="351"/>
        <path fill="rgb(28,28,28)" stroke="none" d="M 7593,3124 C 7593,3155 7585,3185 7570,3212 7554,3238 7532,3260 7506,3276 7479,3291 7449,3299 7418,3299 7387,3299 7357,3291 7331,3276 7304,3260 7282,3238 7266,3212 7251,3185 7243,3155 7243,3124 7243,3093 7251,3063 7266,3037 7282,3010 7304,2988 7331,2972 7357,2957 7387,2949 7418,2949 7449,2949 7479,2957 7506,2972 7532,2988 7554,3010 7570,3037 7585,3063 7593,3093 7593,3124 L 7593,3124 Z"/>
       </g>
      </g>
      <g class="com.sun.star.drawing.CustomShape">
       <g id="id11">
        <rect class="BoundingBox" stroke="none" fill="none" x="3423" y="3120" width="302" height="302"/>
        <path fill="rgb(28,28,28)" stroke="none" d="M 3724,3271 C 3724,3297 3717,3323 3704,3346 3691,3369 3672,3388 3649,3401 3626,3414 3600,3421 3574,3421 3547,3421 3521,3414 3498,3401 3475,3388 3456,3369 3443,3346 3430,3323 3423,3297 3423,3271 3423,3244 3430,3218 3443,3195 3456,3172 3475,3153 3498,3140 3521,3127 3547,3120 3574,3120 3600,3120 3626,3127 3649,3140 3672,3153 3691,3172 3704,3195 3717,3218 3724,3244 3724,3271 L 3724,3271 Z"/>
       </g>
      </g>
      <g class="com.sun.star.drawing.LineShape">
       <g id="id12">
        <rect class="BoundingBox" stroke="none" fill="none" x="4252" y="2359" width="383" height="533"/>
        <path fill="none" stroke="rgb(28,28,28)" stroke-width="81" stroke-linejoin="round" d="M 4293,2400 L 4593,2850"/>
       </g>
      </g>
      <g class="com.sun.star.drawing.LineShape">
       <g id="id13">
        <rect class="BoundingBox" stroke="none" fill="none" x="5840" y="2546" width="407" height="508"/>
        <path fill="none" stroke="rgb(28,28,28)" stroke-width="106" stroke-linejoin="round" d="M 6193,2599 L 5893,3000"/>
       </g>
      </g>
      <g class="com.sun.star.drawing.CustomShape">
       <g id="id14">
        <rect class="BoundingBox" stroke="none" fill="none" x="5993" y="2400" width="402" height="402"/>
        <path fill="rgb(28,28,28)" stroke="none" d="M 6394,2601 C 6394,2636 6385,2670 6367,2701 6350,2731 6324,2757 6294,2774 6263,2792 6229,2801 6194,2801 6158,2801 6124,2792 6093,2774 6063,2757 6037,2731 6020,2701 6002,2670 5993,2636 5993,2601 5993,2565 6002,2531 6020,2500 6037,2470 6063,2444 6093,2427 6124,2409 6158,2400 6194,2400 6229,2400 6263,2409 6294,2427 6324,2444 6350,2470 6367,2500 6385,2531 6394,2565 6394,2601 L 6394,2601 Z"/>
       </g>
      </g>
      <g class="com.sun.star.drawing.LineShape">
       <g id="id15">
        <rect class="BoundingBox" stroke="none" fill="none" x="4302" y="5778" width="2533" height="432"/>
        <path fill="none" stroke="rgb(28,28,28)" stroke-width="81" stroke-linejoin="round" d="M 6793,5819 L 4343,6168"/>
       </g>
      </g>
      <g class="com.sun.star.drawing.CustomShape">
       <g id="id16">
        <rect class="BoundingBox" stroke="none" fill="none" x="4142" y="5900" width="503" height="502"/>
        <path fill="rgb(28,28,28)" stroke="none" d="M 4644,6151 C 4644,6194 4632,6238 4610,6276 4588,6314 4557,6345 4519,6367 4481,6389 4437,6401 4393,6401 4350,6401 4306,6389 4268,6367 4230,6345 4199,6314 4177,6276 4155,6238 4143,6194 4143,6151 4143,6107 4155,6063 4177,6025 4199,5987 4230,5956 4268,5934 4306,5912 4350,5900 4393,5900 4437,5900 4481,5912 4519,5934 4557,5956 4588,5987 4610,6025 4632,6063 4644,6107 4644,6151 L 4644,6151 Z"/>
       </g>
      </g>
      <g class="com.sun.star.drawing.LineShape">
       <g id="id17">
        <rect class="BoundingBox" stroke="none" fill="none" x="3529" y="3227" width="572" height="281"/>
        <path fill="none" stroke="rgb(28,28,28)" stroke-width="81" stroke-linejoin="round" d="M 4059,3466 L 3570,3268"/>
       </g>
      </g>
      <g class="Group">
       <g class="com.sun.star.drawing.PolyPolygonShape">
        <g id="id18">
         <rect class="BoundingBox" stroke="none" fill="none" x="6789" y="3637" width="1060" height="1262"/>
         <path fill="rgb(28,28,28)" stroke="none" d="M 7378,4372 L 7378,4898 7260,4898 7260,4372 6789,3637 6893,3637 6898,3637 6902,3638 6906,3638 6910,3639 6914,3640 6917,3642 6921,3643 6924,3645 6927,3647 6929,3650 6932,3652 6934,3655 6937,3657 6939,3660 6941,3663 6943,3666 7320,4257 7317,4257 7694,3667 7696,3664 7698,3660 7700,3657 7703,3654 7705,3651 7708,3649 7711,3647 7714,3645 7717,3643 7721,3641 7724,3640 7728,3639 7731,3638 7735,3637 7739,3637 7743,3637 7848,3637 7378,4372 Z"/>
        </g>
       </g>
       <g class="com.sun.star.drawing.PolyPolygonShape">
        <g id="id19">
         <rect class="BoundingBox" stroke="none" fill="none" x="7828" y="3624" width="791" height="1289"/>
         <path fill="rgb(28,28,28)" stroke="none" d="M 8567,3814 L 8565,3817 8563,3820 8560,3823 8558,3825 8556,3828 8553,3830 8550,3832 8548,3834 8545,3835 8542,3836 8539,3838 8535,3838 8532,3839 8529,3840 8525,3840 8522,3840 8519,3840 8516,3840 8513,3839 8510,3839 8507,3838 8504,3837 8501,3836 8499,3835 8493,3832 8488,3829 8482,3824 8477,3820 8467,3809 8455,3800 8443,3790 8430,3781 8424,3776 8416,3772 8408,3768 8400,3764 8382,3756 8363,3748 8352,3745 8340,3742 8328,3739 8316,3737 8302,3735 8288,3734 8274,3734 8259,3733 8243,3734 8228,3735 8214,3736 8200,3738 8186,3741 8173,3744 8161,3747 8148,3752 8137,3756 8126,3762 8115,3767 8105,3773 8096,3779 8087,3786 8078,3793 8070,3800 8063,3808 8055,3816 8049,3824 8043,3833 8037,3842 8032,3851 8027,3861 8023,3870 8019,3880 8016,3890 8013,3901 8011,3911 8009,3921 8008,3932 8007,3943 8007,3954 8007,3967 8008,3980 8010,3993 8012,4004 8016,4015 8019,4026 8024,4036 8029,4045 8034,4054 8041,4063 8047,4071 8055,4079 8062,4087 8071,4094 8079,4101 8089,4108 8098,4114 8109,4120 8119,4126 8130,4132 8154,4143 8179,4153 8289,4192 8404,4234 8418,4239 8432,4246 8446,4253 8459,4260 8472,4267 8485,4276 8497,4284 8509,4293 8521,4303 8532,4313 8543,4323 8553,4335 8563,4346 8572,4359 8580,4372 8588,4386 8595,4400 8601,4415 8606,4431 8610,4448 8614,4465 8616,4484 8617,4503 8618,4522 8617,4542 8616,4562 8614,4581 8611,4600 8607,4619 8602,4638 8597,4656 8590,4674 8583,4691 8575,4708 8566,4725 8556,4741 8546,4756 8535,4771 8523,4785 8510,4798 8496,4811 8482,4823 8467,4835 8451,4846 8435,4856 8418,4865 8400,4874 8381,4881 8362,4888 8342,4895 8322,4900 8301,4904 8280,4907 8257,4910 8235,4911 8211,4912 8180,4911 8150,4909 8122,4905 8095,4900 8069,4894 8044,4886 8020,4877 7997,4867 7975,4855 7954,4843 7934,4829 7925,4822 7915,4814 7896,4797 7875,4776 7852,4752 7828,4724 7855,4682 7860,4678 7864,4674 7869,4670 7873,4667 7874,4666 7875,4666 7877,4665 7878,4664 7881,4663 7884,4662 7887,4662 7891,4661 7895,4661 7899,4661 7904,4661 7907,4661 7909,4662 7911,4662 7914,4663 7916,4664 7918,4665 7921,4666 7923,4667 7927,4669 7931,4673 7935,4676 7967,4707 7975,4714 7984,4722 7994,4730 8004,4738 8016,4746 8028,4754 8041,4762 8055,4769 8070,4775 8087,4782 8104,4787 8123,4792 8133,4795 8143,4797 8154,4798 8165,4800 8188,4801 8212,4802 8229,4802 8246,4801 8263,4799 8278,4797 8294,4794 8309,4790 8323,4786 8337,4781 8350,4775 8363,4769 8375,4762 8387,4755 8398,4748 8408,4740 8418,4731 8428,4722 8437,4713 8445,4703 8453,4693 8460,4682 8467,4671 8473,4660 8479,4648 8484,4636 8488,4624 8492,4611 8496,4598 8498,4585 8501,4572 8502,4558 8503,4544 8503,4530 8503,4516 8502,4502 8500,4490 8498,4477 8495,4466 8491,4455 8487,4445 8482,4436 8476,4427 8470,4418 8463,4410 8456,4402 8448,4394 8440,4387 8431,4380 8422,4373 8412,4366 8402,4360 8392,4354 8381,4349 8357,4338 8332,4328 8222,4290 8107,4249 8092,4244 8078,4237 8065,4230 8051,4223 8038,4215 8026,4207 8013,4199 8001,4189 7989,4180 7978,4170 7968,4159 7958,4147 7948,4135 7940,4123 7931,4109 7923,4095 7916,4081 7910,4065 7905,4049 7901,4032 7898,4014 7895,3995 7894,3976 7893,3955 7894,3939 7895,3923 7897,3907 7900,3891 7903,3876 7907,3860 7912,3845 7918,3830 7925,3815 7932,3801 7940,3787 7948,3774 7958,3761 7968,3748 7978,3736 7990,3724 8002,3713 8015,3702 8028,3692 8042,3683 8057,3674 8072,3666 8088,3658 8104,3651 8122,3645 8140,3639 8158,3635 8177,3631 8196,3628 8217,3626 8237,3624 8259,3624 8282,3624 8306,3626 8328,3628 8350,3632 8371,3636 8392,3642 8412,3648 8431,3656 8450,3664 8469,3675 8489,3687 8508,3700 8528,3716 8548,3733 8569,3751 8590,3772 8567,3814 Z"/>
        </g>
       </g>
       <g class="com.sun.star.drawing.PolyPolygonShape">
        <g id="id20">
         <rect class="BoundingBox" stroke="none" fill="none" x="8676" y="3637" width="992" height="1262"/>
         <path fill="rgb(28,28,28)" stroke="none" d="M 9667,3637 L 9667,3748 9231,3748 9231,4898 9114,4898 9114,3748 8676,3748 8676,3637 9667,3637 Z"/>
        </g>
       </g>
       <g class="com.sun.star.drawing.PolyPolygonShape">
        <g id="id21">
         <rect class="BoundingBox" stroke="none" fill="none" x="9810" y="3637" width="777" height="1262"/>
         <path fill="rgb(28,28,28)" stroke="none" d="M 10583,3637 L 10583,3747 9927,3747 9927,4204 10479,4204 10479,4314 9927,4314 9927,4787 10586,4787 10581,4898 9810,4898 9810,3637 10583,3637 Z"/>
        </g>
       </g>
       <g class="com.sun.star.drawing.PolyPolygonShape">
        <g id="id22">
         <rect class="BoundingBox" stroke="none" fill="none" x="10796" y="3637" width="1213" height="1261"/>
         <path fill="rgb(28,28,28)" stroke="none" d="M 11408,4514 L 11895,3665 11897,3661 11900,3657 11903,3654 11905,3651 11908,3648 11911,3646 11915,3644 11918,3642 11921,3641 11924,3640 11928,3639 11931,3638 11934,3637 11938,3637 11942,3637 11945,3637 12008,3637 12008,4897 11897,4897 11896,3820 11465,4640 11460,4648 11457,4651 11454,4654 11452,4657 11449,4660 11446,4662 11442,4664 11439,4666 11436,4668 11433,4669 11429,4670 11425,4671 11422,4672 11418,4672 11414,4672 11405,4672 11401,4672 11397,4672 11394,4671 11390,4670 11386,4669 11383,4668 11379,4666 11376,4664 11373,4662 11370,4660 11367,4657 11364,4654 11361,4651 11359,4648 11356,4644 11354,4640 10907,3815 10907,4897 10796,4897 10796,3637 10859,3637 10862,3637 10866,3637 10869,3637 10873,3638 10876,3639 10880,3640 10883,3641 10886,3642 10889,3644 10893,3646 10896,3648 10898,3651 10901,3654 10904,3657 10907,3661 10909,3665 11408,4514 Z"/>
        </g>
       </g>
       <g class="com.sun.star.drawing.PolyPolygonShape">
        <g id="id23">
         <rect class="BoundingBox" stroke="none" fill="none" x="12205" y="3624" width="791" height="1289"/>
         <path fill="rgb(28,28,28)" stroke="none" d="M 12944,3814 L 12942,3817 12940,3820 12937,3823 12935,3825 12933,3828 12930,3830 12927,3832 12925,3834 12922,3835 12919,3836 12916,3838 12912,3838 12909,3839 12906,3840 12902,3840 12899,3840 12896,3840 12893,3840 12890,3839 12887,3839 12884,3838 12881,3837 12878,3836 12876,3835 12870,3832 12865,3829 12859,3824 12854,3820 12844,3809 12832,3800 12820,3790 12807,3781 12801,3776 12793,3772 12785,3768 12777,3764 12759,3756 12740,3748 12729,3745 12717,3742 12705,3739 12693,3737 12679,3735 12665,3734 12651,3734 12636,3733 12620,3734 12605,3735 12591,3736 12577,3738 12563,3741 12550,3744 12538,3747 12525,3752 12514,3756 12503,3762 12492,3767 12482,3773 12473,3779 12464,3786 12455,3793 12447,3800 12440,3808 12432,3816 12426,3824 12420,3833 12414,3842 12409,3851 12404,3861 12400,3870 12396,3880 12393,3890 12390,3901 12388,3911 12386,3921 12385,3932 12384,3943 12384,3954 12384,3967 12385,3980 12387,3993 12389,4004 12393,4015 12396,4026 12401,4036 12406,4045 12411,4054 12418,4063 12424,4071 12432,4079 12439,4087 12448,4094 12456,4101 12466,4108 12475,4114 12486,4120 12496,4126 12507,4132 12531,4143 12556,4153 12666,4192 12781,4234 12795,4239 12809,4246 12823,4253 12836,4260 12849,4267 12862,4276 12874,4284 12886,4293 12898,4303 12909,4313 12920,4323 12930,4335 12940,4346 12949,4359 12957,4372 12965,4386 12972,4400 12978,4415 12983,4431 12987,4448 12991,4465 12993,4484 12994,4503 12995,4522 12994,4542 12993,4562 12991,4581 12988,4600 12984,4619 12979,4638 12974,4656 12967,4674 12960,4691 12952,4708 12943,4725 12933,4741 12923,4756 12912,4771 12900,4785 12887,4798 12873,4811 12859,4823 12844,4835 12828,4846 12812,4856 12795,4865 12777,4874 12758,4881 12739,4888 12719,4895 12699,4900 12678,4904 12657,4907 12634,4910 12612,4911 12588,4912 12557,4911 12527,4909 12499,4905 12472,4900 12446,4894 12421,4886 12397,4877 12374,4867 12352,4855 12331,4843 12311,4829 12302,4822 12292,4814 12273,4797 12252,4776 12229,4752 12205,4724 12232,4682 12237,4678 12241,4674 12246,4670 12250,4667 12251,4666 12252,4666 12254,4665 12255,4664 12258,4663 12261,4662 12264,4662 12268,4661 12272,4661 12276,4661 12281,4661 12284,4661 12286,4662 12288,4662 12291,4663 12293,4664 12295,4665 12298,4666 12300,4667 12304,4669 12308,4673 12312,4676 12344,4707 12352,4714 12361,4722 12371,4730 12381,4738 12393,4746 12405,4754 12418,4762 12432,4769 12447,4775 12464,4782 12481,4787 12500,4792 12510,4795 12520,4797 12531,4798 12542,4800 12565,4801 12589,4802 12606,4802 12623,4801 12640,4799 12655,4797 12671,4794 12686,4790 12700,4786 12714,4781 12727,4775 12740,4769 12752,4762 12764,4755 12775,4748 12785,4740 12795,4731 12805,4722 12814,4713 12822,4703 12830,4693 12837,4682 12844,4671 12850,4660 12856,4648 12861,4636 12865,4624 12869,4611 12873,4598 12875,4585 12878,4572 12879,4558 12880,4544 12880,4530 12880,4516 12879,4502 12877,4490 12875,4477 12872,4466 12868,4455 12864,4445 12859,4436 12853,4427 12847,4418 12840,4410 12833,4402 12825,4394 12817,4387 12808,4380 12799,4373 12789,4366 12779,4360 12769,4354 12758,4349 12734,4338 12709,4328 12599,4290 12484,4249 12469,4244 12455,4237 12442,4230 12428,4223 12415,4215 12403,4207 12390,4199 12378,4189 12366,4180 12355,4170 12345,4159 12335,4147 12325,4135 12317,4123 12308,4109 12300,4095 12293,4081 12287,4065 12282,4049 12278,4032 12275,4014 12272,3995 12271,3976 12270,3955 12271,3939 12272,3923 12274,3907 12277,3891 12280,3876 12284,3860 12289,3845 12295,3830 12302,3815 12309,3801 12317,3787 12325,3774 12335,3761 12345,3748 12355,3736 12367,3724 12379,3713 12392,3702 12405,3692 12419,3683 12434,3674 12449,3666 12465,3658 12481,3651 12499,3645 12517,3639 12535,3635 12554,3631 12573,3628 12594,3626 12614,3624 12636,3624 12659,3624 12683,3626 12705,3628 12727,3632 12748,3636 12769,3642 12789,3648 12808,3656 12827,3664 12846,3675 12866,3687 12885,3700 12905,3716 12925,3733 12946,3751 12967,3772 12944,3814 Z"/>
        </g>
       </g>
      </g>
      <g class="com.sun.star.drawing.LineShape">
       <g id="id24">
        <rect class="BoundingBox" stroke="none" fill="none" x="4752" y="5459" width="2083" height="233"/>
        <path fill="none" stroke="rgb(28,28,28)" stroke-width="81" stroke-linejoin="round" d="M 4793,5500 L 6793,5650"/>
       </g>
      </g>
      <g class="com.sun.star.drawing.LineShape">
       <g id="id25">
        <rect class="BoundingBox" stroke="none" fill="none" x="4252" y="5459" width="583" height="833"/>
        <path fill="none" stroke="rgb(28,28,28)" stroke-width="81" stroke-linejoin="round" d="M 4793,5500 L 4293,6250"/>
       </g>
      </g>
      <g class="com.sun.star.drawing.CustomShape">
       <g id="id26">
        <rect class="BoundingBox" stroke="none" fill="none" x="3242" y="5170" width="503" height="502"/>
        <path fill="rgb(28,28,28)" stroke="none" d="M 3744,5421 C 3744,5464 3732,5508 3710,5546 3688,5584 3657,5615 3619,5637 3581,5659 3537,5671 3493,5671 3450,5671 3406,5659 3368,5637 3330,5615 3299,5584 3277,5546 3255,5508 3243,5464 3243,5421 3243,5377 3255,5333 3277,5295 3299,5257 3330,5226 3368,5204 3406,5182 3450,5170 3493,5170 3537,5170 3581,5182 3619,5204 3657,5226 3688,5257 3710,5295 3732,5333 3744,5377 3744,5421 L 3744,5421 Z"/>
       </g>
      </g>
      <g class="com.sun.star.drawing.LineShape">
       <g id="id27">
        <rect class="BoundingBox" stroke="none" fill="none" x="3502" y="5459" width="883" height="682"/>
        <path fill="none" stroke="rgb(28,28,28)" stroke-width="81" stroke-linejoin="round" d="M 3543,5500 L 4343,6099"/>
       </g>
      </g>
      <g class="com.sun.star.drawing.LineShape">
       <g id="id28">
        <rect class="BoundingBox" stroke="none" fill="none" x="3502" y="2309" width="833" height="983"/>
        <path fill="none" stroke="rgb(28,28,28)" stroke-width="81" stroke-linejoin="round" d="M 3543,3250 L 4293,2350"/>
       </g>
      </g>
      <g class="com.sun.star.drawing.LineShape">
       <g id="id29">
        <rect class="BoundingBox" stroke="none" fill="none" x="4338" y="2341" width="2010" height="320"/>
        <path fill="none" stroke="rgb(28,28,28)" stroke-width="81" stroke-linejoin="round" d="M 6306,2619 L 4379,2382"/>
       </g>
      </g>
      <g class="com.sun.star.drawing.LineShape">
       <g id="id30">
        <rect class="BoundingBox" stroke="none" fill="none" x="3452" y="5058" width="683" height="434"/>
        <path fill="none" stroke="rgb(28,28,28)" stroke-width="81" stroke-linejoin="round" d="M 4093,5099 L 3493,5450"/>
       </g>
      </g>
      <g class="com.sun.star.drawing.LineShape">
       <g id="id31">
        <rect class="BoundingBox" stroke="none" fill="none" x="2952" y="3959" width="583" height="1583"/>
        <path fill="none" stroke="rgb(28,28,28)" stroke-width="81" stroke-linejoin="round" d="M 2993,4000 L 3493,5500"/>
       </g>
      </g>
      <g class="com.sun.star.drawing.CustomShape">
       <g id="id32">
        <rect class="BoundingBox" stroke="none" fill="none" x="2793" y="3700" width="402" height="402"/>
        <path fill="rgb(28,28,28)" stroke="none" d="M 3194,3901 C 3194,3936 3185,3970 3167,4001 3150,4031 3124,4057 3094,4074 3063,4092 3029,4101 2994,4101 2958,4101 2924,4092 2893,4074 2863,4057 2837,4031 2820,4001 2802,3970 2793,3936 2793,3901 2793,3865 2802,3831 2820,3800 2837,3770 2863,3744 2893,3727 2924,3709 2958,3700 2994,3700 3029,3700 3063,3709 3094,3727 3124,3744 3150,3770 3167,3800 3185,3831 3194,3865 3194,3901 L 3194,3901 Z"/>
       </g>
      </g>
      <g class="com.sun.star.drawing.LineShape">
       <g id="id33">
        <rect class="BoundingBox" stroke="none" fill="none" x="6242" y="2648" width="452" height="452"/>
        <path fill="none" stroke="rgb(28,28,28)" stroke-width="81" stroke-linejoin="round" d="M 6283,2689 L 6652,3058"/>
       </g>
      </g>
      <g class="com.sun.star.drawing.CustomShape">
       <g id="id34">
        <rect class="BoundingBox" stroke="none" fill="none" x="5394" y="2119" width="252" height="252"/>
        <path fill="rgb(28,28,28)" stroke="none" d="M 5645,2245 C 5645,2267 5639,2288 5628,2307 5617,2326 5601,2342 5582,2353 5563,2364 5542,2370 5520,2370 5497,2370 5476,2364 5457,2353 5438,2342 5422,2326 5411,2307 5400,2288 5394,2267 5394,2245 5394,2222 5400,2201 5411,2182 5422,2163 5438,2147 5457,2136 5476,2125 5497,2119 5520,2119 5542,2119 5563,2125 5582,2136 5601,2147 5617,2163 5628,2182 5639,2201 5645,2222 5645,2245 L 5645,2245 Z"/>
       </g>
      </g>
      <g class="com.sun.star.drawing.CustomShape">
       <g id="id35">
        <rect class="BoundingBox" stroke="none" fill="none" x="6494" y="2899" width="252" height="252"/>
        <path fill="rgb(28,28,28)" stroke="none" d="M 6745,3025 C 6745,3047 6739,3068 6728,3087 6717,3106 6701,3122 6682,3133 6663,3144 6642,3150 6620,3150 6597,3150 6576,3144 6557,3133 6538,3122 6522,3106 6511,3087 6500,3068 6494,3047 6494,3025 6494,3002 6500,2981 6511,2962 6522,2943 6538,2927 6557,2916 6576,2905 6597,2899 6620,2899 6642,2899 6663,2905 6682,2916 6701,2927 6717,2943 6728,2962 6739,2981 6745,3002 6745,3025 L 6745,3025 Z"/>
       </g>
      </g>
      <g class="com.sun.star.drawing.LineShape">
       <g id="id36">
        <rect class="BoundingBox" stroke="none" fill="none" x="4338" y="2202" width="1250" height="144"/>
        <path fill="none" stroke="rgb(28,28,28)" stroke-width="81" stroke-linejoin="round" d="M 4379,2304 L 5546,2243"/>
       </g>
      </g>
      <g class="Group">
       <g class="Group">
        <g class="com.sun.star.drawing.PolyPolygonShape">
         <g id="id37">
          <rect class="BoundingBox" stroke="none" fill="none" x="8869" y="5182" width="184" height="346"/>
          <path fill="rgb(28,28,28)" stroke="none" d="M 8869,5527 L 8869,5188 8890,5188 8892,5188 8894,5188 8896,5189 8898,5189 8900,5190 8902,5191 8903,5192 8904,5193 8905,5194 8906,5196 8907,5197 8908,5199 8909,5201 8909,5203 8910,5205 8910,5208 8898,5285 8899,5273 8901,5262 8904,5251 8907,5241 8909,5237 8911,5232 8913,5228 8916,5224 8919,5220 8922,5216 8925,5213 8928,5209 8932,5206 8935,5203 8939,5200 8943,5198 8947,5195 8952,5193 8956,5191 8960,5190 8970,5187 8980,5185 8990,5183 9001,5183 9006,5183 9012,5183 9017,5184 9023,5185 9026,5185 9029,5186 9032,5187 9036,5189 9040,5190 9044,5192 9052,5197 9048,5217 9048,5218 9047,5220 9046,5221 9045,5223 9045,5224 9044,5225 9043,5226 9042,5227 9041,5228 9039,5228 9038,5229 9037,5229 9036,5230 9034,5230 9033,5230 9031,5230 9030,5230 9028,5230 9027,5230 9025,5229 9023,5229 9022,5229 9018,5228 9016,5227 9014,5227 9012,5226 9010,5226 9008,5226 9005,5225 8999,5225 8995,5225 8991,5226 8987,5226 8983,5227 8979,5227 8976,5228 8972,5229 8969,5231 8966,5232 8963,5233 8960,5235 8957,5237 8954,5239 8951,5241 8949,5244 8946,5246 8943,5249 8941,5252 8939,5255 8936,5258 8934,5262 8932,5265 8929,5269 8927,5273 8923,5282 8919,5291 8916,5301 8912,5311 8912,5527 8869,5527 Z"/>
         </g>
        </g>
        <g class="com.sun.star.drawing.PolyPolygonShape">
         <g id="id38">
          <rect class="BoundingBox" stroke="none" fill="none" x="9049" y="5183" width="287" height="349"/>
          <path fill="rgb(28,28,28)" stroke="none" d="M 9201,5183 L 9208,5183 9214,5184 9221,5184 9228,5185 9234,5187 9241,5189 9247,5191 9253,5193 9259,5196 9265,5198 9271,5202 9276,5205 9282,5209 9287,5213 9291,5218 9296,5222 9301,5227 9305,5232 9309,5238 9313,5244 9316,5250 9319,5256 9322,5263 9325,5269 9327,5276 9329,5284 9331,5291 9333,5299 9334,5307 9335,5315 9335,5324 9335,5332 9335,5335 9335,5337 9334,5339 9334,5341 9333,5343 9332,5344 9332,5346 9330,5347 9329,5348 9328,5349 9326,5350 9325,5351 9323,5351 9321,5352 9319,5352 9316,5352 9082,5342 9085,5343 9086,5343 9088,5343 9089,5343 9090,5343 9090,5344 9091,5344 9092,5345 9092,5346 9092,5352 9092,5369 9093,5377 9094,5385 9095,5392 9097,5400 9098,5407 9100,5413 9102,5420 9105,5426 9107,5432 9110,5437 9113,5443 9116,5447 9119,5452 9123,5457 9126,5461 9130,5465 9134,5468 9139,5472 9143,5475 9148,5478 9152,5480 9157,5483 9163,5485 9168,5486 9173,5488 9179,5489 9185,5490 9191,5491 9197,5491 9203,5491 9214,5491 9220,5491 9225,5490 9230,5489 9234,5489 9239,5487 9243,5486 9251,5484 9259,5481 9265,5478 9271,5475 9277,5472 9282,5469 9286,5466 9291,5463 9293,5461 9295,5460 9297,5458 9298,5458 9300,5457 9302,5456 9303,5456 9304,5456 9305,5456 9308,5456 9309,5456 9310,5456 9311,5457 9312,5457 9313,5458 9314,5458 9315,5458 9316,5459 9317,5460 9318,5461 9319,5462 9320,5462 9331,5475 9324,5484 9320,5488 9317,5491 9313,5494 9310,5497 9307,5500 9304,5502 9297,5506 9290,5510 9282,5514 9275,5517 9267,5520 9258,5523 9249,5525 9240,5527 9231,5529 9221,5530 9212,5531 9202,5531 9194,5531 9185,5530 9177,5529 9169,5528 9161,5526 9154,5524 9146,5522 9139,5519 9132,5515 9125,5512 9119,5508 9112,5504 9107,5499 9101,5494 9095,5489 9090,5483 9085,5477 9081,5471 9076,5464 9073,5457 9069,5450 9065,5442 9062,5434 9060,5426 9057,5418 9055,5409 9053,5400 9052,5391 9050,5381 9050,5372 9049,5362 9049,5351 9049,5342 9050,5334 9050,5325 9052,5316 9053,5308 9055,5300 9057,5292 9059,5284 9062,5277 9065,5269 9068,5262 9072,5256 9075,5249 9080,5243 9084,5237 9089,5231 9094,5225 9099,5220 9105,5215 9111,5211 9117,5206 9123,5203 9130,5199 9137,5196 9144,5193 9151,5190 9159,5188 9167,5186 9175,5185 9183,5184 9192,5183 9201,5183 Z M 9201,5222 L 9195,5222 9189,5223 9184,5223 9178,5224 9173,5225 9168,5226 9163,5228 9158,5230 9154,5232 9149,5234 9145,5236 9141,5239 9137,5242 9133,5245 9130,5248 9126,5251 9123,5255 9120,5258 9117,5262 9114,5266 9111,5271 9109,5275 9106,5280 9104,5285 9101,5294 9098,5302 9097,5306 9096,5309 9095,5312 9095,5315 9293,5315 9293,5311 9293,5308 9292,5304 9292,5300 9291,5296 9289,5292 9286,5282 9284,5277 9282,5273 9280,5268 9278,5264 9275,5260 9273,5256 9270,5253 9267,5249 9264,5246 9260,5243 9257,5240 9253,5238 9250,5235 9246,5233 9242,5231 9238,5229 9233,5227 9229,5226 9225,5225 9220,5224 9215,5223 9211,5223 9206,5222 9201,5222 Z"/>
         </g>
        </g>
        <g class="com.sun.star.drawing.PolyPolygonShape">
         <g id="id39">
          <rect class="BoundingBox" stroke="none" fill="none" x="9369" y="5183" width="235" height="350"/>
          <path fill="rgb(28,28,28)" stroke="none" d="M 9589,5240 L 9588,5241 9587,5242 9587,5243 9586,5244 9585,5245 9584,5246 9583,5246 9582,5247 9581,5248 9580,5248 9579,5249 9578,5249 9577,5249 9575,5249 9574,5249 9573,5249 9571,5249 9569,5249 9567,5249 9565,5248 9564,5247 9562,5246 9560,5245 9559,5244 9555,5241 9552,5239 9548,5237 9544,5234 9540,5232 9535,5230 9529,5228 9524,5226 9520,5225 9517,5225 9513,5224 9510,5223 9506,5223 9502,5223 9493,5222 9489,5223 9485,5223 9481,5223 9477,5224 9474,5224 9470,5225 9467,5226 9463,5227 9460,5228 9457,5230 9454,5231 9451,5233 9448,5234 9446,5236 9443,5238 9441,5240 9439,5241 9437,5243 9435,5246 9433,5248 9431,5250 9430,5252 9428,5254 9427,5257 9426,5259 9425,5262 9424,5264 9424,5267 9423,5269 9423,5272 9422,5274 9422,5277 9422,5280 9423,5282 9423,5285 9424,5288 9425,5290 9426,5292 9427,5294 9428,5296 9430,5298 9431,5300 9433,5302 9435,5304 9437,5306 9440,5307 9442,5309 9445,5311 9447,5312 9450,5314 9457,5317 9464,5319 9471,5322 9503,5332 9538,5344 9546,5347 9550,5349 9554,5351 9558,5353 9562,5356 9566,5358 9569,5361 9573,5363 9576,5366 9579,5369 9583,5372 9585,5375 9588,5379 9591,5383 9593,5387 9595,5391 9597,5395 9599,5399 9600,5404 9601,5409 9602,5414 9603,5419 9603,5425 9603,5431 9602,5436 9602,5441 9601,5447 9600,5452 9598,5457 9597,5462 9595,5467 9593,5472 9590,5476 9588,5481 9585,5485 9582,5490 9578,5494 9575,5498 9571,5501 9567,5505 9563,5508 9559,5511 9554,5514 9549,5517 9544,5520 9539,5522 9534,5524 9528,5526 9522,5528 9517,5529 9510,5530 9504,5531 9498,5532 9491,5532 9484,5532 9476,5532 9467,5532 9459,5531 9451,5530 9444,5528 9437,5526 9430,5524 9423,5521 9417,5518 9411,5515 9405,5512 9399,5508 9393,5504 9386,5498 9378,5491 9369,5483 9381,5468 9381,5467 9382,5466 9383,5466 9383,5465 9384,5464 9385,5464 9386,5463 9387,5462 9387,5462 9388,5462 9389,5461 9390,5461 9391,5460 9392,5460 9394,5460 9395,5460 9397,5460 9398,5460 9399,5460 9400,5460 9401,5460 9403,5461 9405,5461 9407,5462 9409,5463 9411,5465 9413,5466 9416,5469 9420,5473 9425,5476 9429,5478 9431,5480 9434,5481 9439,5484 9445,5486 9451,5489 9455,5490 9458,5491 9462,5492 9466,5492 9471,5493 9475,5493 9480,5493 9485,5493 9490,5493 9494,5493 9499,5493 9503,5492 9507,5491 9511,5490 9515,5489 9519,5488 9522,5487 9525,5485 9529,5484 9532,5482 9534,5480 9537,5478 9540,5476 9542,5474 9544,5472 9546,5469 9548,5467 9550,5464 9552,5462 9553,5459 9555,5456 9556,5453 9557,5450 9558,5447 9559,5444 9560,5441 9560,5438 9560,5434 9561,5431 9561,5428 9561,5424 9560,5421 9560,5418 9559,5416 9558,5413 9557,5410 9556,5408 9555,5406 9553,5404 9552,5402 9550,5400 9548,5398 9546,5396 9543,5394 9541,5392 9538,5391 9535,5389 9532,5387 9526,5384 9519,5382 9512,5379 9480,5369 9446,5357 9437,5354 9433,5352 9429,5350 9425,5348 9421,5346 9418,5344 9414,5341 9410,5339 9407,5336 9404,5333 9401,5330 9398,5327 9395,5323 9392,5319 9390,5316 9388,5312 9386,5308 9384,5303 9383,5298 9382,5294 9381,5288 9381,5283 9380,5277 9381,5273 9381,5268 9382,5263 9382,5259 9384,5254 9385,5250 9387,5246 9389,5241 9391,5237 9393,5233 9396,5229 9399,5225 9402,5221 9405,5218 9408,5214 9412,5211 9416,5208 9420,5205 9424,5202 9428,5199 9433,5197 9438,5195 9443,5192 9448,5190 9453,5189 9458,5187 9464,5186 9469,5185 9475,5184 9481,5183 9487,5183 9493,5183 9500,5183 9507,5184 9514,5184 9521,5185 9527,5186 9534,5188 9540,5189 9546,5191 9552,5194 9558,5197 9564,5200 9571,5204 9577,5209 9584,5214 9591,5219 9598,5226 9589,5240 Z"/>
         </g>
        </g>
        <g class="com.sun.star.drawing.PolyPolygonShape">
         <g id="id40">
          <rect class="BoundingBox" stroke="none" fill="none" x="9646" y="5183" width="287" height="349"/>
          <path fill="rgb(28,28,28)" stroke="none" d="M 9798,5183 L 9805,5183 9811,5184 9818,5184 9825,5185 9831,5187 9838,5189 9844,5191 9850,5193 9856,5196 9862,5198 9868,5202 9873,5205 9879,5209 9884,5213 9888,5218 9893,5222 9898,5227 9902,5232 9906,5238 9910,5244 9913,5250 9916,5256 9919,5263 9922,5269 9924,5276 9926,5284 9928,5291 9930,5299 9931,5307 9932,5315 9932,5324 9932,5332 9932,5335 9932,5337 9931,5339 9931,5341 9930,5343 9929,5344 9929,5346 9927,5347 9926,5348 9925,5349 9923,5350 9922,5351 9920,5351 9918,5352 9916,5352 9913,5352 9679,5342 9682,5343 9683,5343 9685,5343 9686,5343 9687,5343 9687,5344 9688,5344 9689,5345 9689,5346 9689,5352 9689,5369 9690,5377 9691,5385 9692,5392 9694,5400 9695,5407 9697,5413 9699,5420 9702,5426 9704,5432 9707,5437 9710,5443 9713,5447 9716,5452 9720,5457 9723,5461 9727,5465 9731,5468 9736,5472 9740,5475 9745,5478 9749,5480 9754,5483 9760,5485 9765,5486 9770,5488 9776,5489 9782,5490 9788,5491 9794,5491 9800,5491 9811,5491 9817,5491 9822,5490 9827,5489 9831,5489 9836,5487 9840,5486 9848,5484 9856,5481 9862,5478 9868,5475 9874,5472 9879,5469 9883,5466 9888,5463 9890,5461 9892,5460 9894,5458 9895,5458 9897,5457 9899,5456 9900,5456 9901,5456 9902,5456 9905,5456 9906,5456 9907,5456 9908,5457 9909,5457 9910,5458 9911,5458 9912,5458 9913,5459 9914,5460 9915,5461 9916,5462 9917,5462 9928,5475 9921,5484 9917,5488 9914,5491 9910,5494 9907,5497 9904,5500 9901,5502 9894,5506 9887,5510 9879,5514 9872,5517 9864,5520 9855,5523 9846,5525 9837,5527 9828,5529 9818,5530 9809,5531 9799,5531 9791,5531 9782,5530 9774,5529 9766,5528 9758,5526 9751,5524 9743,5522 9736,5519 9729,5515 9722,5512 9716,5508 9709,5504 9704,5499 9698,5494 9692,5489 9687,5483 9682,5477 9678,5471 9673,5464 9670,5457 9666,5450 9662,5442 9659,5434 9657,5426 9654,5418 9652,5409 9650,5400 9649,5391 9647,5381 9647,5372 9646,5362 9646,5351 9646,5342 9647,5334 9647,5325 9649,5316 9650,5308 9652,5300 9654,5292 9656,5284 9659,5277 9662,5269 9665,5262 9669,5256 9672,5249 9677,5243 9681,5237 9686,5231 9691,5225 9696,5220 9702,5215 9708,5211 9714,5206 9720,5203 9727,5199 9734,5196 9741,5193 9748,5190 9756,5188 9764,5186 9772,5185 9780,5184 9789,5183 9798,5183 Z M 9798,5222 L 9792,5222 9786,5223 9781,5223 9775,5224 9770,5225 9765,5226 9760,5228 9755,5230 9751,5232 9746,5234 9742,5236 9738,5239 9734,5242 9730,5245 9727,5248 9723,5251 9720,5255 9717,5258 9714,5262 9711,5266 9708,5271 9706,5275 9703,5280 9701,5285 9698,5294 9695,5302 9694,5306 9693,5309 9692,5312 9692,5315 9890,5315 9890,5311 9890,5308 9889,5304 9889,5300 9888,5296 9886,5292 9883,5282 9881,5277 9879,5273 9877,5268 9875,5264 9872,5260 9870,5256 9867,5253 9864,5249 9861,5246 9857,5243 9854,5240 9850,5238 9847,5235 9843,5233 9839,5231 9835,5229 9830,5227 9826,5226 9822,5225 9817,5224 9812,5223 9808,5223 9803,5222 9798,5222 Z"/>
         </g>
        </g>
        <g class="com.sun.star.drawing.PolyPolygonShape">
         <g id="id41">
          <rect class="BoundingBox" stroke="none" fill="none" x="9969" y="5183" width="248" height="350"/>
          <path fill="rgb(28,28,28)" stroke="none" d="M 10197,5527 L 10195,5527 10193,5527 10191,5527 10189,5526 10187,5526 10186,5525 10184,5524 10183,5523 10182,5522 10181,5520 10180,5519 10179,5517 10178,5515 10177,5513 10177,5511 10176,5509 10179,5481 10180,5481 10180,5482 10180,5483 10180,5484 10179,5485 10178,5486 10177,5487 10176,5488 10174,5491 10171,5493 10168,5496 10161,5501 10154,5506 10146,5511 10139,5515 10130,5519 10122,5523 10113,5525 10104,5528 10100,5529 10095,5530 10085,5531 10075,5532 10064,5532 10060,5532 10056,5532 10051,5532 10047,5531 10043,5530 10039,5530 10035,5529 10030,5527 10026,5526 10022,5524 10018,5523 10014,5521 10011,5518 10007,5516 10003,5514 10000,5511 9996,5508 9993,5505 9990,5501 9987,5498 9985,5494 9982,5490 9980,5486 9977,5482 9975,5477 9974,5472 9972,5467 9971,5462 9970,5457 9970,5451 9969,5446 9969,5440 9969,5433 9970,5427 9971,5422 9973,5416 9975,5410 9977,5405 9980,5400 9983,5395 9987,5390 9991,5385 9996,5381 10001,5376 10006,5372 10012,5368 10018,5365 10025,5361 10032,5358 10039,5355 10047,5352 10055,5349 10073,5345 10092,5341 10112,5337 10132,5335 10152,5334 10173,5333 10173,5309 10173,5299 10172,5289 10170,5280 10169,5272 10166,5264 10163,5257 10162,5253 10160,5250 10158,5247 10156,5245 10154,5242 10151,5239 10149,5237 10146,5235 10144,5233 10141,5231 10138,5230 10135,5228 10132,5227 10128,5226 10125,5225 10121,5224 10114,5223 10105,5223 10100,5223 10095,5223 10090,5224 10086,5224 10081,5225 10077,5226 10073,5227 10069,5229 10062,5232 10055,5235 10052,5237 10049,5239 10046,5241 10043,5242 10038,5246 10034,5250 10029,5254 10025,5258 10023,5260 10020,5262 10018,5264 10016,5265 10015,5265 10014,5266 10013,5266 10012,5266 10011,5267 10010,5267 10008,5267 10007,5267 10006,5267 10005,5267 10004,5267 10003,5266 10001,5266 10000,5266 9999,5265 9998,5265 9997,5264 9996,5263 9995,5262 9994,5262 9993,5261 9992,5260 9991,5258 9982,5244 9998,5229 10006,5222 10013,5216 10021,5210 10028,5205 10035,5201 10042,5197 10050,5194 10057,5191 10065,5188 10073,5186 10081,5185 10089,5184 10098,5183 10107,5183 10113,5183 10120,5184 10126,5184 10132,5185 10138,5187 10144,5188 10149,5190 10155,5192 10160,5194 10165,5197 10169,5200 10174,5203 10178,5206 10182,5210 10186,5214 10189,5218 10193,5222 10196,5227 10199,5231 10201,5236 10204,5241 10206,5247 10208,5252 10209,5258 10211,5264 10212,5270 10213,5276 10214,5282 10215,5288 10215,5295 10216,5309 10216,5527 10197,5527 Z M 10067,5494 L 10076,5493 10081,5493 10085,5493 10089,5492 10093,5491 10097,5490 10101,5489 10109,5487 10116,5485 10123,5482 10129,5478 10136,5474 10142,5470 10148,5466 10154,5461 10159,5456 10164,5451 10169,5447 10173,5443 10173,5371 10135,5374 10119,5376 10103,5378 10088,5381 10075,5384 10063,5388 10052,5392 10043,5397 10035,5402 10031,5405 10028,5408 10025,5410 10022,5413 10019,5416 10017,5419 10016,5422 10014,5426 10013,5429 10012,5432 10012,5436 10012,5439 10012,5443 10012,5446 10012,5450 10013,5453 10013,5456 10014,5459 10015,5461 10016,5464 10018,5466 10019,5469 10020,5471 10022,5473 10023,5475 10025,5477 10027,5479 10029,5481 10030,5482 10033,5484 10035,5485 10037,5486 10039,5487 10041,5489 10044,5490 10046,5490 10049,5491 10051,5492 10054,5492 10057,5493 10059,5493 10062,5493 10065,5494 10067,5494 Z"/>
         </g>
        </g>
        <g class="com.sun.star.drawing.PolyPolygonShape">
         <g id="id42">
          <rect class="BoundingBox" stroke="none" fill="none" x="10300" y="5182" width="184" height="346"/>
          <path fill="rgb(28,28,28)" stroke="none" d="M 10300,5527 L 10300,5188 10321,5188 10323,5188 10325,5188 10327,5189 10329,5189 10331,5190 10333,5191 10334,5192 10335,5193 10336,5194 10337,5196 10338,5197 10339,5199 10340,5201 10340,5203 10341,5205 10341,5208 10329,5285 10330,5273 10332,5262 10335,5251 10338,5241 10340,5237 10342,5232 10344,5228 10347,5224 10350,5220 10353,5216 10356,5213 10359,5209 10363,5206 10366,5203 10370,5200 10374,5198 10378,5195 10383,5193 10387,5191 10391,5190 10401,5187 10411,5185 10421,5183 10432,5183 10437,5183 10443,5183 10448,5184 10454,5185 10457,5185 10460,5186 10463,5187 10467,5189 10471,5190 10475,5192 10483,5197 10479,5217 10479,5218 10478,5220 10477,5221 10476,5223 10476,5224 10475,5225 10474,5226 10473,5227 10472,5228 10470,5228 10469,5229 10468,5229 10467,5230 10465,5230 10464,5230 10462,5230 10461,5230 10459,5230 10458,5230 10456,5229 10454,5229 10453,5229 10449,5228 10447,5227 10445,5227 10443,5226 10441,5226 10439,5226 10436,5225 10430,5225 10426,5225 10422,5226 10418,5226 10414,5227 10410,5227 10407,5228 10403,5229 10400,5231 10397,5232 10394,5233 10391,5235 10388,5237 10385,5239 10382,5241 10380,5244 10377,5246 10374,5249 10372,5252 10370,5255 10367,5258 10365,5262 10363,5265 10360,5269 10358,5273 10354,5282 10350,5291 10347,5301 10343,5311 10343,5527 10300,5527 Z"/>
         </g>
        </g>
        <g class="com.sun.star.drawing.PolyPolygonShape">
         <g id="id43">
          <rect class="BoundingBox" stroke="none" fill="none" x="10480" y="5183" width="266" height="349"/>
          <path fill="rgb(28,28,28)" stroke="none" d="M 10729,5244 L 10728,5245 10727,5246 10724,5249 10724,5249 10723,5249 10723,5250 10722,5250 10722,5250 10721,5250 10720,5251 10719,5251 10718,5251 10716,5251 10715,5251 10713,5251 10711,5251 10709,5251 10708,5250 10706,5249 10704,5248 10702,5247 10701,5246 10697,5243 10694,5240 10690,5238 10686,5235 10683,5234 10681,5233 10676,5231 10670,5229 10664,5227 10661,5226 10657,5225 10654,5224 10650,5224 10646,5223 10642,5223 10633,5223 10626,5223 10620,5223 10614,5224 10608,5225 10602,5226 10597,5228 10591,5230 10586,5232 10581,5234 10577,5237 10572,5240 10568,5243 10564,5246 10560,5250 10556,5254 10552,5258 10549,5263 10546,5267 10543,5272 10540,5277 10537,5283 10535,5288 10533,5294 10531,5300 10529,5307 10528,5313 10526,5320 10525,5327 10524,5335 10524,5342 10523,5358 10524,5374 10524,5382 10525,5389 10526,5396 10528,5403 10529,5410 10531,5416 10533,5423 10535,5428 10538,5434 10540,5439 10543,5445 10546,5449 10549,5454 10552,5458 10556,5462 10559,5466 10563,5470 10567,5473 10571,5476 10576,5479 10580,5481 10585,5483 10590,5485 10595,5487 10600,5489 10605,5490 10611,5491 10616,5491 10622,5492 10628,5492 10638,5492 10643,5491 10648,5491 10652,5490 10657,5489 10661,5488 10664,5487 10671,5484 10678,5482 10683,5479 10686,5478 10688,5476 10693,5473 10697,5470 10701,5466 10705,5463 10707,5461 10709,5460 10711,5459 10713,5458 10713,5457 10714,5457 10715,5457 10716,5457 10717,5456 10718,5456 10719,5456 10720,5456 10721,5456 10722,5456 10723,5456 10724,5457 10725,5457 10726,5457 10727,5457 10728,5458 10729,5458 10730,5459 10731,5459 10732,5460 10732,5461 10733,5461 10735,5463 10745,5476 10738,5484 10735,5488 10732,5491 10729,5494 10726,5497 10724,5500 10721,5502 10715,5506 10708,5510 10702,5514 10695,5517 10687,5520 10680,5523 10671,5525 10663,5527 10654,5529 10645,5530 10636,5531 10626,5531 10618,5531 10610,5531 10602,5530 10594,5528 10587,5527 10580,5525 10573,5522 10566,5519 10559,5516 10553,5513 10547,5509 10541,5505 10535,5500 10530,5495 10525,5490 10520,5485 10515,5479 10511,5473 10507,5466 10503,5460 10499,5453 10496,5445 10493,5438 10490,5430 10488,5422 10486,5413 10484,5405 10483,5396 10481,5387 10481,5377 10480,5368 10480,5358 10480,5348 10481,5339 10481,5330 10483,5321 10484,5312 10486,5304 10488,5296 10490,5288 10493,5280 10496,5272 10499,5265 10503,5258 10506,5251 10511,5244 10515,5238 10520,5232 10525,5227 10530,5221 10536,5216 10542,5212 10548,5207 10554,5203 10561,5199 10568,5196 10575,5193 10582,5190 10590,5188 10598,5186 10606,5185 10614,5184 10623,5183 10632,5183 10640,5183 10647,5184 10655,5184 10662,5186 10669,5187 10676,5189 10683,5191 10689,5193 10695,5196 10702,5199 10708,5203 10715,5207 10721,5212 10728,5217 10734,5223 10741,5229 10729,5244 Z"/>
         </g>
        </g>
        <g class="com.sun.star.drawing.PolyPolygonShape">
         <g id="id44">
          <rect class="BoundingBox" stroke="none" fill="none" x="10795" y="5042" width="266" height="486"/>
          <path fill="rgb(28,28,28)" stroke="none" d="M 10795,5527 L 10795,5042 10838,5042 10837,5224 10837,5224 10837,5223 10838,5223 10839,5222 10840,5221 10842,5219 10846,5217 10856,5210 10871,5202 10879,5197 10888,5193 10896,5190 10905,5187 10914,5185 10924,5184 10933,5183 10943,5183 10950,5183 10957,5183 10963,5184 10970,5185 10976,5186 10982,5188 10988,5190 10994,5192 10999,5194 11004,5197 11009,5200 11014,5203 11019,5207 11023,5210 11027,5214 11031,5218 11034,5223 11038,5228 11041,5232 11044,5237 11046,5243 11049,5248 11051,5254 11053,5260 11054,5266 11056,5272 11057,5279 11058,5285 11059,5292 11059,5299 11060,5306 11060,5314 11060,5527 11017,5527 11017,5314 11016,5303 11016,5297 11015,5292 11015,5287 11014,5283 11013,5278 11012,5274 11011,5270 11009,5266 11008,5262 11006,5258 11004,5255 11002,5252 11000,5248 10998,5246 10995,5243 10993,5240 10990,5238 10987,5236 10984,5234 10981,5232 10978,5230 10974,5228 10971,5227 10967,5226 10963,5225 10959,5224 10954,5223 10950,5223 10945,5223 10940,5222 10932,5223 10925,5223 10918,5225 10910,5226 10903,5229 10896,5232 10890,5235 10883,5239 10876,5243 10870,5247 10864,5252 10859,5257 10853,5263 10848,5269 10843,5275 10838,5281 10838,5527 10795,5527 Z"/>
         </g>
        </g>
        <g class="com.sun.star.drawing.PolyPolygonShape">
         <g id="id45">
          <rect class="BoundingBox" stroke="none" fill="none" x="11469" y="5183" width="302" height="465"/>
          <path fill="rgb(28,28,28)" stroke="none" d="M 11610,5183 L 11615,5183 11621,5183 11626,5184 11632,5184 11637,5185 11642,5186 11647,5187 11652,5189 11661,5192 11665,5194 11669,5195 11673,5197 11676,5199 11680,5201 11683,5203 11770,5203 11770,5221 11770,5223 11769,5225 11769,5226 11769,5227 11769,5228 11768,5229 11768,5230 11767,5230 11767,5231 11766,5232 11766,5233 11765,5233 11765,5234 11764,5235 11762,5236 11761,5237 11759,5238 11758,5238 11756,5239 11754,5240 11753,5240 11751,5240 11712,5237 11713,5237 11714,5237 11715,5238 11716,5238 11717,5239 11717,5240 11718,5242 11719,5243 11721,5246 11722,5250 11724,5254 11726,5259 11727,5264 11729,5269 11730,5274 11730,5280 11731,5285 11731,5290 11731,5296 11731,5302 11731,5308 11730,5314 11729,5320 11728,5326 11726,5331 11725,5337 11722,5342 11720,5347 11718,5352 11715,5357 11712,5362 11709,5366 11705,5370 11701,5374 11697,5378 11693,5382 11689,5385 11684,5388 11680,5391 11675,5394 11670,5397 11664,5399 11659,5401 11653,5403 11647,5405 11642,5406 11635,5407 11629,5408 11623,5409 11616,5409 11610,5409 11602,5409 11594,5408 11586,5407 11579,5406 11572,5405 11566,5403 11562,5402 11560,5401 11558,5400 11556,5401 11555,5403 11553,5404 11551,5405 11549,5407 11548,5409 11546,5411 11544,5413 11543,5416 11541,5418 11540,5420 11539,5422 11538,5424 11538,5426 11538,5427 11537,5428 11537,5429 11537,5430 11537,5432 11538,5433 11538,5434 11538,5435 11539,5436 11539,5437 11539,5438 11540,5439 11540,5440 11541,5440 11541,5441 11542,5442 11543,5443 11544,5443 11545,5444 11547,5446 11549,5447 11552,5448 11554,5449 11557,5450 11560,5451 11564,5452 11571,5453 11579,5454 11588,5455 11597,5456 11639,5458 11650,5459 11660,5459 11671,5460 11682,5462 11687,5462 11693,5463 11698,5464 11703,5466 11708,5467 11713,5468 11717,5470 11722,5472 11727,5474 11731,5476 11735,5479 11739,5482 11743,5485 11746,5488 11749,5491 11753,5495 11756,5499 11758,5503 11760,5508 11762,5513 11763,5518 11764,5524 11765,5530 11765,5536 11765,5541 11764,5547 11763,5552 11762,5558 11761,5563 11759,5568 11756,5574 11754,5579 11751,5584 11748,5588 11744,5593 11740,5598 11736,5602 11732,5606 11727,5610 11722,5614 11717,5617 11712,5621 11706,5624 11700,5627 11694,5630 11688,5633 11681,5635 11675,5637 11668,5639 11661,5641 11653,5643 11646,5644 11638,5645 11630,5646 11622,5646 11614,5646 11597,5646 11582,5644 11574,5643 11567,5642 11560,5641 11553,5639 11547,5637 11540,5635 11534,5633 11529,5630 11523,5628 11518,5625 11513,5622 11508,5619 11503,5615 11499,5612 11495,5608 11491,5604 11488,5600 11485,5596 11482,5592 11479,5587 11477,5583 11475,5578 11473,5574 11471,5569 11470,5564 11470,5559 11469,5554 11469,5549 11469,5541 11470,5534 11472,5527 11474,5520 11477,5514 11480,5508 11485,5502 11489,5496 11494,5491 11499,5486 11504,5483 11507,5481 11509,5480 11512,5479 11514,5478 11517,5477 11519,5476 11521,5476 11524,5476 11526,5476 11528,5476 11528,5477 11527,5477 11526,5477 11526,5478 11525,5478 11524,5478 11523,5478 11522,5478 11521,5477 11520,5477 11519,5476 11517,5475 11516,5474 11513,5472 11510,5469 11508,5467 11507,5466 11505,5464 11504,5462 11503,5460 11502,5458 11501,5456 11500,5453 11498,5449 11497,5444 11497,5438 11496,5432 11496,5430 11497,5428 11497,5426 11497,5424 11498,5421 11498,5419 11499,5417 11500,5415 11501,5412 11502,5410 11503,5408 11504,5406 11505,5404 11506,5401 11508,5399 11509,5397 11512,5393 11515,5389 11519,5386 11523,5382 11524,5381 11525,5380 11526,5380 11527,5379 11528,5379 11529,5378 11530,5378 11531,5378 11532,5378 11533,5378 11534,5379 11535,5379 11535,5380 11536,5381 11534,5380 11531,5379 11529,5379 11526,5378 11524,5377 11522,5375 11520,5374 11518,5372 11515,5370 11513,5368 11509,5364 11506,5359 11502,5353 11499,5347 11496,5340 11494,5333 11492,5326 11490,5319 11489,5312 11489,5304 11488,5296 11489,5290 11489,5284 11490,5278 11491,5272 11492,5266 11493,5261 11495,5256 11497,5250 11499,5245 11502,5240 11505,5235 11508,5231 11511,5226 11514,5222 11518,5218 11522,5214 11526,5211 11530,5207 11535,5204 11540,5201 11545,5198 11550,5196 11555,5193 11560,5191 11566,5189 11572,5188 11578,5186 11584,5185 11590,5184 11597,5184 11603,5183 11610,5183 Z M 11723,5538 L 11723,5535 11723,5532 11723,5530 11722,5527 11721,5525 11720,5523 11719,5522 11719,5521 11718,5520 11718,5519 11716,5517 11714,5516 11712,5514 11710,5513 11708,5511 11706,5510 11703,5509 11700,5508 11697,5507 11694,5505 11691,5505 11687,5504 11680,5502 11672,5501 11635,5498 11596,5496 11587,5495 11578,5494 11570,5493 11562,5492 11557,5494 11552,5496 11547,5499 11542,5502 11537,5505 11533,5508 11531,5510 11529,5511 11527,5513 11525,5515 11523,5517 11522,5518 11520,5520 11519,5522 11518,5524 11516,5526 11515,5528 11514,5530 11513,5532 11513,5534 11512,5536 11512,5538 11511,5541 11511,5543 11511,5545 11511,5548 11511,5550 11511,5553 11512,5556 11512,5559 11513,5562 11514,5564 11515,5567 11517,5570 11519,5572 11520,5575 11522,5577 11525,5579 11527,5582 11530,5584 11533,5586 11536,5588 11539,5590 11543,5592 11547,5594 11551,5596 11555,5597 11559,5599 11569,5602 11574,5603 11579,5604 11584,5605 11590,5606 11602,5607 11614,5607 11625,5607 11631,5606 11636,5606 11642,5605 11647,5604 11652,5603 11657,5601 11662,5600 11667,5598 11672,5597 11676,5595 11681,5593 11685,5591 11689,5589 11693,5586 11696,5584 11699,5581 11703,5579 11706,5576 11708,5573 11711,5570 11713,5567 11715,5564 11717,5561 11719,5558 11720,5555 11721,5551 11722,5548 11723,5545 11723,5541 11723,5538 Z M 11610,5371 L 11615,5371 11619,5370 11624,5370 11628,5369 11632,5369 11637,5368 11641,5366 11644,5365 11648,5364 11651,5362 11655,5361 11658,5359 11661,5357 11664,5355 11666,5352 11669,5350 11671,5348 11674,5345 11676,5342 11678,5340 11680,5337 11681,5334 11683,5330 11684,5327 11685,5324 11686,5320 11687,5316 11688,5313 11689,5309 11689,5305 11689,5300 11689,5296 11689,5292 11689,5288 11689,5284 11688,5280 11687,5276 11686,5273 11685,5269 11684,5266 11683,5262 11681,5259 11679,5256 11677,5253 11676,5250 11673,5248 11671,5245 11669,5243 11666,5240 11664,5238 11661,5236 11658,5234 11654,5232 11651,5231 11648,5229 11644,5228 11640,5226 11636,5225 11632,5224 11628,5224 11624,5223 11619,5222 11615,5222 11610,5222 11605,5222 11601,5222 11596,5223 11592,5224 11588,5224 11584,5225 11580,5226 11576,5228 11572,5229 11569,5231 11566,5232 11562,5234 11559,5236 11557,5238 11554,5240 11551,5243 11549,5245 11547,5248 11545,5250 11543,5253 11541,5256 11539,5259 11537,5262 11536,5266 11535,5269 11534,5273 11533,5276 11532,5280 11531,5284 11531,5288 11531,5292 11531,5296 11531,5300 11531,5305 11531,5309 11532,5313 11533,5316 11534,5320 11535,5324 11536,5327 11537,5330 11539,5333 11541,5337 11543,5340 11545,5342 11547,5345 11549,5348 11551,5350 11554,5352 11557,5355 11559,5357 11562,5359 11566,5361 11569,5362 11572,5364 11576,5365 11580,5366 11584,5368 11588,5369 11592,5369 11596,5370 11601,5370 11605,5371 11610,5371 Z"/>
         </g>
        </g>
        <g class="com.sun.star.drawing.PolyPolygonShape">
         <g id="id46">
          <rect class="BoundingBox" stroke="none" fill="none" x="11820" y="5182" width="184" height="346"/>
          <path fill="rgb(28,28,28)" stroke="none" d="M 11820,5527 L 11820,5188 11841,5188 11843,5188 11845,5188 11847,5189 11849,5189 11851,5190 11853,5191 11854,5192 11855,5193 11856,5194 11857,5196 11858,5197 11859,5199 11860,5201 11860,5203 11861,5205 11861,5208 11849,5285 11850,5273 11852,5262 11855,5251 11858,5241 11860,5237 11862,5232 11864,5228 11867,5224 11870,5220 11873,5216 11876,5213 11879,5209 11883,5206 11886,5203 11890,5200 11894,5198 11898,5195 11903,5193 11907,5191 11911,5190 11921,5187 11931,5185 11941,5183 11952,5183 11957,5183 11963,5183 11968,5184 11974,5185 11977,5185 11980,5186 11983,5187 11987,5189 11991,5190 11995,5192 12003,5197 11999,5217 11999,5218 11998,5220 11997,5221 11996,5223 11996,5224 11995,5225 11994,5226 11993,5227 11992,5228 11990,5228 11989,5229 11988,5229 11987,5230 11985,5230 11984,5230 11982,5230 11981,5230 11979,5230 11978,5230 11976,5229 11974,5229 11973,5229 11969,5228 11967,5227 11965,5227 11963,5226 11961,5226 11959,5226 11956,5225 11950,5225 11946,5225 11942,5226 11938,5226 11934,5227 11930,5227 11927,5228 11923,5229 11920,5231 11917,5232 11914,5233 11911,5235 11908,5237 11905,5239 11902,5241 11900,5244 11897,5246 11894,5249 11892,5252 11890,5255 11887,5258 11885,5262 11883,5265 11880,5269 11878,5273 11874,5282 11870,5291 11867,5301 11863,5311 11863,5527 11820,5527 Z"/>
         </g>
        </g>
        <g class="com.sun.star.drawing.PolyPolygonShape">
         <g id="id47">
          <rect class="BoundingBox" stroke="none" fill="none" x="12000" y="5183" width="306" height="349"/>
          <path fill="rgb(28,28,28)" stroke="none" d="M 12152,5183 L 12161,5183 12170,5184 12178,5185 12187,5186 12195,5188 12202,5190 12210,5193 12217,5196 12224,5199 12231,5203 12237,5207 12243,5211 12249,5216 12255,5221 12260,5226 12265,5232 12270,5238 12274,5244 12279,5251 12282,5257 12286,5264 12289,5272 12292,5279 12295,5287 12297,5295 12299,5304 12301,5312 12302,5321 12303,5330 12304,5339 12304,5348 12305,5358 12304,5367 12304,5377 12303,5386 12302,5395 12301,5403 12299,5412 12297,5420 12295,5428 12292,5436 12289,5444 12286,5451 12282,5458 12278,5465 12274,5471 12270,5477 12265,5483 12260,5489 12255,5494 12249,5499 12243,5504 12237,5508 12231,5512 12224,5516 12217,5519 12210,5522 12202,5524 12194,5527 12186,5528 12178,5530 12170,5531 12161,5531 12152,5531 12143,5531 12135,5531 12126,5530 12118,5528 12110,5527 12102,5524 12095,5522 12088,5519 12081,5516 12074,5512 12067,5508 12061,5504 12055,5499 12050,5494 12044,5489 12039,5483 12035,5477 12030,5471 12026,5465 12022,5458 12019,5451 12015,5444 12013,5436 12010,5428 12008,5420 12006,5412 12004,5403 12002,5395 12001,5386 12001,5377 12000,5367 12000,5358 12000,5348 12001,5339 12001,5330 12002,5321 12004,5312 12006,5304 12008,5295 12010,5287 12013,5279 12015,5272 12019,5264 12022,5257 12026,5251 12030,5244 12035,5238 12039,5232 12044,5226 12050,5221 12055,5216 12061,5211 12067,5207 12074,5203 12081,5199 12088,5196 12095,5193 12102,5190 12110,5188 12118,5186 12126,5185 12135,5184 12143,5183 12152,5183 Z M 12152,5492 L 12159,5492 12166,5491 12172,5490 12178,5489 12184,5488 12189,5486 12195,5485 12200,5482 12205,5480 12210,5477 12214,5474 12218,5471 12223,5468 12226,5464 12230,5460 12234,5456 12237,5452 12240,5447 12243,5442 12246,5437 12248,5432 12250,5426 12252,5420 12254,5414 12256,5408 12257,5401 12259,5395 12260,5388 12260,5381 12261,5373 12261,5358 12261,5342 12260,5335 12260,5328 12259,5321 12257,5314 12256,5308 12254,5301 12252,5295 12250,5289 12248,5283 12246,5278 12243,5273 12240,5268 12237,5263 12234,5259 12230,5255 12226,5251 12223,5247 12218,5243 12214,5240 12210,5237 12205,5235 12200,5232 12195,5230 12189,5228 12184,5226 12178,5225 12172,5224 12166,5223 12159,5223 12152,5223 12146,5223 12139,5223 12133,5224 12127,5225 12121,5226 12115,5228 12110,5230 12105,5232 12100,5235 12095,5237 12090,5240 12086,5243 12082,5247 12078,5251 12074,5255 12071,5259 12068,5263 12065,5268 12062,5273 12059,5278 12056,5283 12054,5289 12052,5295 12050,5301 12049,5308 12047,5314 12046,5321 12045,5328 12044,5335 12044,5342 12043,5358 12044,5373 12044,5381 12045,5388 12046,5395 12047,5401 12049,5408 12050,5414 12052,5420 12054,5426 12056,5432 12059,5437 12062,5442 12064,5447 12068,5452 12071,5456 12074,5460 12078,5464 12082,5468 12086,5471 12090,5474 12095,5477 12100,5480 12105,5482 12110,5485 12115,5486 12121,5488 12127,5489 12133,5490 12139,5491 12146,5492 12152,5492 Z"/>
         </g>
        </g>
        <g class="com.sun.star.drawing.PolyPolygonShape">
         <g id="id48">
          <rect class="BoundingBox" stroke="none" fill="none" x="12366" y="5188" width="266" height="345"/>
          <path fill="rgb(28,28,28)" stroke="none" d="M 12409,5188 L 12409,5401 12410,5412 12410,5418 12410,5423 12411,5428 12412,5432 12413,5437 12414,5441 12415,5445 12417,5449 12418,5453 12420,5457 12422,5460 12424,5464 12426,5467 12428,5470 12431,5472 12433,5475 12436,5477 12439,5479 12442,5481 12445,5483 12448,5485 12452,5487 12455,5488 12459,5489 12463,5490 12468,5491 12472,5492 12476,5492 12481,5493 12486,5493 12494,5492 12501,5492 12508,5490 12515,5489 12522,5486 12529,5484 12536,5480 12543,5476 12549,5472 12555,5468 12561,5463 12567,5458 12573,5452 12578,5446 12583,5440 12588,5434 12588,5188 12631,5188 12631,5527 12610,5527 12608,5527 12606,5527 12604,5527 12602,5526 12601,5526 12599,5525 12598,5524 12597,5523 12595,5522 12594,5520 12593,5519 12592,5517 12592,5515 12591,5513 12591,5511 12590,5509 12590,5491 12590,5491 12590,5492 12589,5492 12587,5494 12581,5498 12556,5513 12547,5518 12539,5522 12530,5525 12521,5528 12512,5530 12503,5531 12493,5532 12483,5532 12476,5532 12469,5532 12462,5531 12456,5530 12450,5529 12444,5527 12438,5525 12432,5523 12427,5521 12422,5518 12417,5515 12412,5512 12407,5509 12403,5505 12399,5501 12395,5497 12392,5492 12388,5488 12385,5483 12382,5478 12380,5472 12377,5467 12375,5461 12373,5455 12371,5449 12370,5443 12369,5436 12368,5430 12367,5423 12366,5416 12366,5409 12366,5401 12366,5188 12409,5188 Z"/>
         </g>
        </g>
        <g class="com.sun.star.drawing.PolyPolygonShape">
         <g id="id49">
          <rect class="BoundingBox" stroke="none" fill="none" x="12717" y="5182" width="282" height="460"/>
          <path fill="rgb(28,28,28)" stroke="none" d="M 12717,5641 L 12717,5188 12738,5188 12740,5188 12743,5188 12745,5189 12746,5189 12748,5190 12750,5191 12751,5192 12752,5193 12753,5194 12755,5195 12755,5197 12756,5199 12757,5201 12757,5203 12758,5205 12758,5207 12757,5225 12758,5224 12759,5223 12760,5222 12762,5220 12766,5218 12776,5211 12790,5202 12798,5198 12806,5194 12815,5191 12824,5188 12832,5186 12842,5184 12851,5183 12861,5183 12877,5184 12892,5186 12899,5187 12906,5189 12912,5191 12919,5194 12925,5197 12931,5200 12937,5204 12942,5208 12948,5212 12953,5216 12957,5221 12962,5227 12966,5232 12970,5238 12974,5244 12978,5251 12984,5265 12989,5281 12993,5298 12996,5316 12997,5335 12998,5356 12998,5365 12997,5374 12996,5382 12995,5391 12994,5399 12992,5408 12991,5416 12988,5424 12986,5432 12983,5439 12980,5446 12977,5454 12973,5460 12969,5467 12965,5473 12960,5480 12955,5485 12950,5491 12944,5496 12939,5501 12933,5506 12926,5510 12920,5514 12913,5518 12905,5521 12898,5524 12890,5526 12882,5528 12874,5529 12866,5531 12857,5531 12848,5531 12830,5531 12815,5530 12801,5528 12789,5526 12784,5525 12779,5523 12775,5521 12771,5519 12768,5517 12765,5515 12762,5513 12760,5510 12760,5641 12717,5641 Z M 12857,5223 L 12850,5223 12843,5224 12836,5225 12829,5227 12822,5229 12816,5232 12809,5235 12803,5239 12797,5243 12791,5248 12785,5253 12780,5258 12774,5264 12769,5269 12765,5275 12760,5282 12760,5446 12764,5452 12768,5457 12773,5462 12777,5467 12782,5471 12786,5475 12791,5478 12797,5481 12802,5484 12807,5486 12813,5488 12819,5489 12825,5490 12832,5491 12838,5492 12845,5492 12852,5492 12859,5491 12865,5491 12871,5490 12877,5488 12882,5486 12888,5484 12893,5482 12898,5479 12903,5477 12907,5474 12911,5470 12916,5467 12919,5463 12923,5459 12927,5454 12930,5450 12933,5445 12936,5440 12938,5435 12941,5429 12943,5424 12945,5418 12947,5411 12949,5405 12950,5398 12951,5392 12952,5385 12953,5378 12954,5371 12954,5356 12954,5339 12953,5323 12951,5309 12948,5296 12944,5283 12940,5273 12938,5268 12935,5263 12932,5258 12929,5254 12926,5251 12923,5247 12919,5244 12915,5241 12912,5238 12908,5235 12903,5233 12899,5231 12894,5229 12889,5227 12885,5226 12879,5225 12869,5223 12857,5223 Z"/>
         </g>
        </g>
       </g>
      </g>
     </g>
    </g>
   </g>
  </g>
 </g>
</svg>